<svg width="117" height="29" viewBox="0 0 117 29" fill="none" xmlns="http://www.w3.org/2000/svg">
<g clip-path="url(#clip0_721_795)">
<g clip-path="url(#clip1_721_795)">
<mask id="mask0_721_795" style="mask-type:luminance" maskUnits="userSpaceOnUse" x="0" y="0" width="116" height="29">
<path d="M115.804 0.00390625H0V28.7991H115.804V0.00390625Z" fill="white"/>
</mask>
<g mask="url(#mask0_721_795)">
<mask id="mask1_721_795" style="mask-type:luminance" maskUnits="userSpaceOnUse" x="0" y="0" width="116" height="29">
<path d="M115.642 0.00390625H0.161133V28.7991H115.642V0.00390625Z" fill="white"/>
</mask>
<g mask="url(#mask1_721_795)">
<path d="M43.0921 3.71588L39.5892 12.9728H46.7153L43.2124 3.71588H43.0921ZM33.5107 20.9977L41.5954 0.476562H44.7094L52.7937 20.9977C50.9625 20.9977 49.3293 19.8945 48.716 18.2429L47.6737 15.4374H38.6608L37.6017 18.2472C36.9797 19.8979 35.3436 20.9977 33.5107 20.9977Z" fill="white"/>
<path d="M67.7048 20.9965H65.0698V19.0474H64.9495C64.5306 19.7351 63.8875 20.3082 63.0186 20.7668C62.1502 21.2253 61.2468 21.4551 60.3084 21.4551C58.5124 21.4551 57.1297 20.9634 56.162 19.9788C55.1939 18.9951 54.71 17.5956 54.71 15.7803V6.95312H57.4645V15.6081C57.5238 17.9012 58.7315 19.0474 61.087 19.0474C62.1852 19.0474 63.1033 18.6229 63.8423 17.7721C64.5803 16.9219 64.9495 15.905 64.9495 14.7198V6.95312H67.7048V20.9965Z" fill="white"/>
<path d="M74.5619 20.996H71.8066V6.95267H74.4417V9.24511H74.5619C74.8409 8.49988 75.4151 7.8648 76.2834 7.33971C77.1513 6.81395 78.0044 6.55078 78.8434 6.55078C79.6412 6.55078 80.3199 6.66624 80.8794 6.89508L80.0409 9.44611C79.701 9.3123 79.1618 9.24511 78.4244 9.24511C77.3856 9.24511 76.4822 9.6461 75.7149 10.449C74.9453 11.2518 74.5619 12.1881 74.5619 13.2576V20.996Z" fill="white"/>
<path d="M86.4186 20.9963H83.6633V6.95287H86.4186V20.9963ZM86.9872 2.1088C86.9872 2.62495 86.7975 3.06461 86.4186 3.42781C86.0392 3.79038 85.5802 3.97213 85.0409 3.97213C84.5023 3.97213 84.0421 3.79038 83.6633 3.42781C83.2844 3.06461 83.0947 2.62495 83.0947 2.1088C83.0947 1.59327 83.2844 1.15392 83.6633 0.790415C84.0421 0.427844 84.5023 0.246094 85.0409 0.246094C85.5802 0.246094 86.0392 0.427844 86.4186 0.790415C86.7975 1.15392 86.9872 1.59327 86.9872 2.1088Z" fill="white"/>
<path d="M97.5258 0.246094C98.5229 0.246094 99.3416 0.408646 99.9807 0.733441L99.2321 3.05471C98.7533 2.82589 98.2146 2.71071 97.6156 2.71071C96.9369 2.71071 96.3825 2.93582 95.9539 3.38415C95.5242 3.8331 95.3097 4.43068 95.3097 5.17595V6.95287H99.1428V9.35958H95.3097V20.9963H92.555V9.35958H89.8008V6.95287H92.555V4.91741C92.555 3.52285 93.0196 2.39613 93.9479 1.53569C94.8761 0.67585 96.068 0.246094 97.5258 0.246094Z" fill="white"/>
<path d="M115.641 6.95312L106.449 27.8331C105.032 27.8331 104.084 26.4382 104.659 25.1988L107.018 20.1079L102.175 9.57659C101.607 8.3406 102.553 6.95312 103.964 6.95312L108.335 17.0408H108.395L111.527 9.61126C112.203 8.00494 113.832 6.95312 115.641 6.95312Z" fill="white"/>
</g>
<path d="M34.5195 24.6013V24.2578H37.0252V24.6013H35.9745V27.4554H35.5702V24.6013H34.5195Z" fill="white"/>
<path d="M40.1064 27.4562V24.2585H42.1227V24.6021H40.5111V25.6825H42.0182V26.026H40.5111V27.1127H42.1489V27.4562H40.1064ZM48.2674 25.2578H47.8627C47.8387 25.1465 47.797 25.0486 47.7372 24.9643C47.6783 24.88 47.6065 24.8092 47.5218 24.752C47.438 24.6936 47.3452 24.6499 47.2429 24.6208C47.1407 24.5917 47.0339 24.577 46.9233 24.577C46.7209 24.577 46.5378 24.626 46.3734 24.7238C46.2104 24.8217 46.0804 24.9658 45.9837 25.1563C45.8879 25.3468 45.84 25.5805 45.84 25.8574C45.84 26.1342 45.8879 26.3679 45.9837 26.5584C46.0804 26.7489 46.2104 26.893 46.3734 26.9909C46.5378 27.0887 46.7209 27.1376 46.9233 27.1376C47.0339 27.1376 47.1407 27.1231 47.2429 27.0939C47.3452 27.0648 47.438 27.0216 47.5218 26.9643C47.6065 26.906 47.6783 26.8347 47.7372 26.7504C47.797 26.6651 47.8387 26.5672 47.8627 26.4569H48.2674C48.2366 26.6203 48.1813 26.7665 48.1008 26.8956C48.0205 27.0247 47.9203 27.1345 47.8006 27.2251C47.6812 27.3146 47.5467 27.3828 47.3979 27.4296C47.25 27.4764 47.0919 27.4999 46.9233 27.4999C46.6384 27.4999 46.3848 27.4332 46.1631 27.3C45.9413 27.1667 45.7666 26.9773 45.6395 26.7317C45.5123 26.4861 45.4486 26.1946 45.4486 25.8574C45.4486 25.5201 45.5123 25.2287 45.6395 24.983C45.7666 24.7373 45.9413 24.5479 46.1631 24.4147C46.3848 24.2815 46.6384 24.2148 46.9233 24.2148C47.0919 24.2148 47.25 24.2383 47.3979 24.2851C47.5467 24.3319 47.6812 24.4007 47.8006 24.4912C47.9203 24.5807 48.0205 24.69 48.1008 24.819C48.1813 24.9471 48.2366 25.0934 48.2674 25.2578Z" fill="white"/>
<path d="M51.7256 27.4554V24.2578H52.1299V25.6818H53.9113V24.2578H54.316V27.4554H53.9113V26.0253H52.1299V27.4554H51.7256Z" fill="white"/>
<path d="M60.4704 24.2585V27.4562H60.0792L58.2583 24.9456H58.2261V27.4562H57.8213V24.2585H58.2126L60.0396 26.7754H60.0724V24.2585H60.4704ZM67.0408 25.8574C67.0408 26.1946 66.9776 26.4861 66.85 26.7317C66.723 26.9773 66.5485 27.1667 66.3266 27.3C66.1047 27.4332 65.8512 27.4999 65.5666 27.4999C65.2815 27.4999 65.0286 27.4332 64.8067 27.3C64.5848 27.1667 64.4097 26.9773 64.2827 26.7317C64.1557 26.4861 64.0919 26.1946 64.0919 25.8574C64.0919 25.5201 64.1557 25.2287 64.2827 24.983C64.4097 24.7373 64.5848 24.5479 64.8067 24.4147C65.0286 24.2815 65.2815 24.2148 65.5666 24.2148C65.8512 24.2148 66.1047 24.2815 66.3266 24.4147C66.5485 24.5479 66.723 24.7373 66.85 24.983C66.9776 25.2287 67.0408 25.5201 67.0408 25.8574ZM66.6496 25.8574C66.6496 25.5805 66.601 25.3468 66.5045 25.1563C66.4085 24.9658 66.2792 24.8217 66.1149 24.7238C65.9517 24.626 65.7688 24.577 65.5666 24.577C65.3639 24.577 65.181 24.626 65.0167 24.7238C64.8535 24.8217 64.7237 24.9658 64.6271 25.1563C64.5311 25.3468 64.4831 25.5805 64.4831 25.8574C64.4831 26.1342 64.5311 26.3679 64.6271 26.5584C64.7237 26.7489 64.8535 26.893 65.0167 26.9909C65.181 27.0887 65.3639 27.1376 65.5666 27.1376C65.7688 27.1376 65.9517 27.0887 66.1149 26.9909C66.2792 26.893 66.4085 26.7489 66.5045 26.5584C66.601 26.3679 66.6496 26.1342 66.6496 25.8574ZM70.6639 27.4562V24.2585H71.0682V27.1127H72.6215V27.4562H70.6639ZM79.0089 25.8574C79.0089 26.1946 78.9451 26.4861 78.8181 26.7317C78.691 26.9773 78.5166 27.1667 78.2941 27.3C78.0722 27.4332 77.8193 27.4999 77.5341 27.4999C77.2496 27.4999 76.9961 27.4332 76.7742 27.3C76.5523 27.1667 76.3778 26.9773 76.2508 26.7317C76.1232 26.4861 76.0599 26.1946 76.0599 25.8574C76.0599 25.5201 76.1232 25.2287 76.2508 24.983C76.3778 24.7373 76.5523 24.5479 76.7742 24.4147C76.9961 24.2815 77.2496 24.2148 77.5341 24.2148C77.8193 24.2148 78.0722 24.2815 78.2941 24.4147C78.5166 24.5479 78.691 24.7373 78.8181 24.983C78.9451 25.2287 79.0089 25.5201 79.0089 25.8574ZM78.6176 25.8574C78.6176 25.5805 78.5691 25.3468 78.4725 25.1563C78.3765 24.9658 78.2467 24.8217 78.0824 24.7238C77.9192 24.626 77.7368 24.577 77.5341 24.577C77.332 24.577 77.1491 24.626 76.9848 24.7238C76.8216 24.8217 76.6917 24.9658 76.5946 25.1563C76.4992 25.3468 76.4512 25.5805 76.4512 25.8574C76.4512 26.1342 76.4992 26.3679 76.5946 26.5584C76.6917 26.7489 76.8216 26.893 76.9848 26.9909C77.1491 27.0887 77.332 27.1376 77.5341 27.1376C77.7368 27.1376 77.9192 27.0887 78.0824 26.9909C78.2467 26.893 78.3765 26.7489 78.4725 26.5584C78.5691 26.3679 78.6176 26.1342 78.6176 25.8574ZM84.9153 25.2578C84.8792 25.1527 84.8323 25.0585 84.773 24.9752C84.7154 24.8909 84.6466 24.819 84.5664 24.7598C84.4868 24.7004 84.397 24.6551 84.2954 24.6239C84.1943 24.5927 84.0831 24.577 83.9628 24.577C83.7646 24.577 83.5851 24.626 83.4225 24.7238C83.2604 24.8217 83.1317 24.9658 83.0363 25.1563C82.9403 25.3468 82.8923 25.5805 82.8923 25.8574C82.8923 26.1342 82.9409 26.3679 83.038 26.5584C83.1345 26.7489 83.2655 26.893 83.4309 26.9909C83.5964 27.0887 83.7821 27.1376 83.9888 27.1376C84.1802 27.1376 84.349 27.0986 84.4947 27.0205C84.6415 26.9414 84.7555 26.8301 84.8368 26.6864C84.9198 26.5417 84.961 26.3715 84.961 26.1759L85.0853 26.2008H84.0803V25.8574H85.3523V26.2008C85.3523 26.4642 85.2936 26.6932 85.1762 26.8878C85.0599 27.0824 84.8989 27.2334 84.6934 27.3406C84.489 27.4468 84.2542 27.4999 83.9888 27.4999C83.6929 27.4999 83.4332 27.4332 83.209 27.3C82.986 27.1667 82.8121 26.9773 82.6873 26.7317C82.5631 26.4861 82.501 26.1946 82.501 25.8574C82.501 25.6044 82.5366 25.377 82.6072 25.1751C82.6789 24.9721 82.7799 24.7993 82.9109 24.6567C83.0408 24.5141 83.1955 24.4048 83.3739 24.3288C83.5523 24.2528 83.7483 24.2148 83.9628 24.2148C84.139 24.2148 84.3027 24.2404 84.4551 24.2913C84.6087 24.3413 84.7454 24.4126 84.8651 24.5053C84.9853 24.5969 85.0858 24.7067 85.1666 24.8347C85.2467 24.9617 85.3026 25.1027 85.3331 25.2578H84.9153Z" fill="white"/>
<path d="M89.4082 24.2578V27.4554H89.0039V24.2578H89.4082ZM92.9472 27.4554V24.2578H94.9628V24.6013H93.3514V25.6818H94.8584V26.0253H93.3514V27.1119H94.9888V27.4554H92.9472Z" fill="white"/>
<path d="M100.203 25.058C100.184 24.8998 100.104 24.7769 99.9646 24.6895C99.8258 24.6021 99.6552 24.5584 99.4525 24.5584C99.3052 24.5584 99.1753 24.5812 99.0647 24.627C98.9546 24.6728 98.8687 24.7358 98.8066 24.8159C98.7462 24.8961 98.7152 24.9872 98.7152 25.0892C98.7152 25.1746 98.7366 25.2479 98.779 25.3093C98.8224 25.3697 98.8778 25.4202 98.9455 25.4608C99.0127 25.5004 99.0833 25.5331 99.1573 25.5591C99.2318 25.5841 99.2995 25.6044 99.3611 25.62L99.7004 25.7074C99.7874 25.7293 99.8845 25.7595 99.9912 25.798C100.099 25.8365 100.201 25.8891 100.299 25.9557C100.398 26.0213 100.48 26.1056 100.544 26.2087C100.608 26.3117 100.64 26.4382 100.64 26.588C100.64 26.7608 100.593 26.917 100.498 27.0564C100.405 27.1959 100.268 27.3068 100.087 27.389C99.9082 27.4712 99.6897 27.5123 99.4328 27.5123C99.194 27.5123 98.9867 27.4754 98.8117 27.4015C98.6378 27.3276 98.5006 27.2246 98.4007 27.0924C98.3013 26.9602 98.2454 26.8066 98.2324 26.6318H98.6502C98.661 26.7525 98.7033 26.8524 98.7773 26.9315C98.8524 27.0096 98.9472 27.0679 99.0613 27.1064C99.1765 27.1439 99.3007 27.1626 99.4328 27.1626C99.5875 27.1626 99.7264 27.1387 99.8489 27.0908C99.972 27.0419 100.069 26.9742 100.141 26.8878C100.213 26.8004 100.249 26.6984 100.249 26.5818C100.249 26.4756 100.218 26.3892 100.155 26.3227C100.093 26.256 100.012 26.2019 99.911 26.1602C99.8099 26.1186 99.7004 26.0822 99.583 26.051L99.1719 25.9385C98.9111 25.8667 98.7044 25.7642 98.552 25.6309C98.4001 25.4978 98.3239 25.3234 98.3239 25.1079C98.3239 24.9289 98.3747 24.7727 98.4758 24.6395C98.578 24.5053 98.7152 24.4012 98.8868 24.3273C99.0596 24.2523 99.2527 24.2148 99.4655 24.2148C99.6812 24.2148 99.8726 24.2518 100.04 24.3257C100.207 24.3986 100.34 24.4984 100.438 24.6255C100.537 24.7525 100.589 24.8966 100.595 25.058H100.203Z" fill="white"/>
<mask id="mask2_721_795" style="mask-type:luminance" maskUnits="userSpaceOnUse" x="5" y="0" width="13" height="8">
<path d="M5.37012 3.10016L13.9746 7.83744C14.9126 6.47509 16.2389 5.3914 17.7268 4.58637L10.1899 0.437379C9.67232 0.127755 9.12239 0.00390625 8.57252 0.00390625C6.92278 0.00390625 5.37012 1.30434 5.37012 3.10016Z" fill="white"/>
</mask>
<g mask="url(#mask2_721_795)">
<path d="M-39.2041 -60.6836V199.987H153.352L153.352 -60.683L-39.2041 -60.6836Z" fill="url(#paint0_linear_721_795)"/>
</g>
<mask id="mask3_721_795" style="mask-type:luminance" maskUnits="userSpaceOnUse" x="14" y="4" width="13" height="19">
<path d="M14.5566 8.14644L24.9078 13.8745L22.6759 15.1131C22.6759 15.1131 18.8265 17.3733 14.7831 19.7265C15.7535 21.0269 17.0798 22.0486 18.6001 22.7298L25.4578 18.9214C26.0076 17.4043 26.2988 15.7633 26.2988 14.0294C26.2988 12.2025 25.9429 10.4067 25.3284 8.7967L18.4383 4.98828C16.8857 5.70043 15.5594 6.81508 14.5566 8.14644Z" fill="white"/>
</mask>
<g mask="url(#mask3_721_795)">
<path d="M-39.2051 199.987H153.352V-60.6836H-39.2051V199.987Z" fill="url(#paint1_linear_721_795)"/>
</g>
<mask id="mask4_721_795" style="mask-type:luminance" maskUnits="userSpaceOnUse" x="0" y="6" width="13" height="16">
<path d="M0 8.17909L10.3512 13.8762L8.11917 15.1147C8.11917 15.1147 4.26986 17.375 0.226434 19.7281L0.25878 19.7591C1.8438 21.8026 4.81976 22.329 7.11642 21.0595L12.8419 17.8704C12.3243 16.6319 12.0332 15.3314 12.0332 13.9071C12.0332 12.5138 12.3243 11.1515 12.8419 9.94396L6.98701 6.69287C6.14602 6.22842 5.24028 6.01172 4.33455 6.01172C2.68484 6.01172 1.03512 6.78575 0 8.17909Z" fill="white"/>
</mask>
<g mask="url(#mask4_721_795)">
<path d="M-39.2047 -60.6836L-39.2051 199.987H153.352V-60.683L-39.2047 -60.6836Z" fill="url(#paint2_linear_721_795)"/>
</g>
<mask id="mask5_721_795" style="mask-type:luminance" maskUnits="userSpaceOnUse" x="5" y="20" width="13" height="9">
<path d="M5.43457 25.2062C5.43457 27.3426 7.89295 28.705 9.8338 27.6213L17.8883 23.1317C16.4327 22.4196 15.1388 21.3669 14.2007 20.0664C10.0603 22.4815 5.88745 24.9275 5.43457 25.2062Z" fill="white"/>
</mask>
<g mask="url(#mask5_721_795)">
<path d="M-39.2047 -60.6836L-39.2051 199.987H153.352V-60.683L-39.2047 -60.6836Z" fill="url(#paint3_linear_721_795)"/>
</g>
</g>
</g>
</g>
<defs>
<linearGradient id="paint0_linear_721_795" x1="11.5448" y1="0.0083269" x2="11.5448" y2="7.83101" gradientUnits="userSpaceOnUse">
<stop stop-color="#306EBB"/>
<stop offset="0.205952" stop-color="#3070BC"/>
<stop offset="0.571429" stop-color="#3A96D2"/>
<stop offset="0.792857" stop-color="#42BCE9"/>
<stop offset="1" stop-color="#53CABB"/>
</linearGradient>
<linearGradient id="paint1_linear_721_795" x1="14.5659" y1="13.8597" x2="26.3119" y2="13.8597" gradientUnits="userSpaceOnUse">
<stop stop-color="#306EBB"/>
<stop offset="0.205952" stop-color="#3070BC"/>
<stop offset="0.571429" stop-color="#3A96D2"/>
<stop offset="0.792857" stop-color="#42BCE9"/>
<stop offset="1" stop-color="#53CABB"/>
</linearGradient>
<linearGradient id="paint2_linear_721_795" x1="6.43514" y1="6.01263" x2="6.43514" y2="21.7426" gradientUnits="userSpaceOnUse">
<stop stop-color="#306EBB"/>
<stop offset="0.205952" stop-color="#3070BC"/>
<stop offset="0.571429" stop-color="#3A96D2"/>
<stop offset="0.792857" stop-color="#42BCE9"/>
<stop offset="1" stop-color="#53CABB"/>
</linearGradient>
<linearGradient id="paint3_linear_721_795" x1="11.6721" y1="20.077" x2="11.672" y2="27.9992" gradientUnits="userSpaceOnUse">
<stop stop-color="#306EBB"/>
<stop offset="0.205952" stop-color="#3070BC"/>
<stop offset="0.571429" stop-color="#3A96D2"/>
<stop offset="0.792857" stop-color="#42BCE9"/>
<stop offset="1" stop-color="#53CABB"/>
</linearGradient>
<clipPath id="clip0_721_795">
<rect width="116.31" height="28.8" fill="white"/>
</clipPath>
<clipPath id="clip1_721_795">
<rect width="116.31" height="28.7952" fill="white" transform="translate(0 0.00390625)"/>
</clipPath>
</defs>
</svg>
