<svg width="1082" height="409" viewBox="0 0 1082 409" fill="none" xmlns="http://www.w3.org/2000/svg">
<rect x="201" width="45" height="10" rx="5" transform="rotate(90 201 0)" fill="#C4921F"/>
<rect x="249.876" y="25.375" width="45" height="10" rx="5" transform="rotate(135.533 249.876 25.375)" fill="#C4921F"/>
<rect x="221" y="66" width="45" height="10" rx="5" fill="#C4921F"/>
<path d="M175 185.875C170.146 187.905 168.755 191.581 168.77 196.534C168.847 221.349 169.091 246.171 168.657 270.979C168.156 299.597 155.754 321.762 130.218 335.289C104.403 348.964 78.6299 346.743 54.2644 331.461C29.7395 316.078 20.3818 288.841 29.6661 262.906C32.7932 254.171 38.259 247.183 45.8429 241.885C47.2145 240.927 48.8883 240.401 51.2007 239.308C50.6586 240.795 50.6329 241.418 50.3197 241.645C27.6798 258.061 30.9936 300.856 60.6982 317.453C85.3849 331.246 118.058 326.711 136.383 306.368C145.756 295.964 148.711 283.327 148.804 269.862C148.969 246.047 148.888 222.23 148.777 198.414C148.755 193.743 148 187.875 143 185.875C147.5 185.875 152.5 185.875 157 185.876C163 185.876 169 185.875 175 185.875Z" fill="#C4921F"/>
<path d="M100.517 196.398C113.668 204.883 126.451 213.295 139.48 221.306C143.686 223.892 145.463 226.788 145.07 231.783C144.589 237.892 144.955 244.067 144.955 250.294C145 251.371 143.604 250.569 143.26 250.372C129.702 242.597 116.153 234.805 102.63 226.968C91.5577 220.551 81.8017 212.573 74.4282 202.019C57.8772 178.33 69.8219 144.966 98.1644 135.493C112.296 130.77 126.344 131.35 140.306 136.26C141.876 136.812 143.426 137.425 145.009 137.938C151.726 140.116 153.761 139.121 156.409 132.516C156.745 131.681 157.362 130.958 158.748 130.391C158.748 143.589 158.748 156.788 158.748 169.986H156.5L155.96 165.47C153.096 150.109 138.948 138.664 121.695 137.827C105.03 137.018 90.0221 146.875 85.7811 161.638C82.8056 171.997 85.7771 181.055 92.6589 188.951C94.9427 191.571 97.7026 193.776 100.517 196.398Z" fill="#C4921F"/>
<rect x="142" y="183.875" width="34" height="2" rx="1" fill="#C4921F"/>
<path d="M23 69.375H186C196.217 69.375 204.5 77.6577 204.5 87.875V385.875C204.5 396.092 196.217 404.375 186 404.375H23C12.7827 404.375 4.5 396.092 4.5 385.875V87.875C4.5 77.6577 12.7827 69.375 23 69.375Z" stroke="#C4921F" stroke-width="9"/>
<path d="M315.167 128V165.686H312.194C311.23 158.454 309.489 152.695 306.971 148.41C304.507 144.124 300.971 140.723 296.364 138.205C291.757 135.687 286.99 134.428 282.061 134.428C276.49 134.428 271.883 136.143 268.24 139.571C264.598 142.946 262.776 146.803 262.776 151.142C262.776 154.463 263.928 157.49 266.232 160.222C269.553 164.24 277.454 169.597 289.936 176.293C300.114 181.757 307.051 185.962 310.748 188.908C314.497 191.801 317.363 195.229 319.345 199.194C321.381 203.158 322.399 207.309 322.399 211.648C322.399 219.898 319.185 227.023 312.756 233.023C306.382 238.969 298.159 241.942 288.088 241.942C284.927 241.942 281.954 241.701 279.168 241.219C277.508 240.951 274.053 239.987 268.803 238.326C263.607 236.612 260.312 235.755 258.919 235.755C257.58 235.755 256.509 236.156 255.705 236.96C254.955 237.764 254.393 239.424 254.018 241.942H251.045V204.577H254.018C255.411 212.398 257.285 218.264 259.642 222.175C262 226.032 265.589 229.246 270.41 231.817C275.285 234.389 280.615 235.674 286.4 235.674C293.097 235.674 298.373 233.907 302.23 230.371C306.141 226.835 308.096 222.657 308.096 217.836C308.096 215.157 307.346 212.452 305.846 209.72C304.4 206.988 302.123 204.443 299.016 202.086C296.927 200.479 291.222 197.078 281.901 191.881C272.579 186.632 265.937 182.453 261.973 179.346C258.062 176.239 255.089 172.811 253.053 169.061C251.018 165.311 250 161.186 250 156.686C250 148.865 253 142.142 259 136.518C264.999 130.839 272.633 128 281.901 128C287.686 128 293.82 129.42 300.302 132.259C303.301 133.598 305.417 134.268 306.65 134.268C308.042 134.268 309.167 133.866 310.024 133.062C310.935 132.205 311.658 130.518 312.194 128H315.167Z" fill="white"/>
<path d="M381.712 128C395.854 128 408.095 133.384 418.434 144.151C428.826 154.865 434.022 168.257 434.022 184.328C434.022 200.881 428.799 214.622 418.353 225.55C407.907 236.478 395.265 241.942 380.426 241.942C365.427 241.942 352.811 236.612 342.579 225.951C332.401 215.291 327.312 201.497 327.312 184.569C327.312 167.266 333.205 153.151 344.99 142.223C355.222 132.741 367.462 128 381.712 128ZM380.185 133.866C370.435 133.866 362.614 137.482 356.722 144.714C349.383 153.713 345.713 166.891 345.713 184.248C345.713 202.033 349.517 215.72 357.123 225.309C362.962 232.594 370.676 236.237 380.265 236.237C390.497 236.237 398.934 232.246 405.577 224.264C412.273 216.282 415.621 203.693 415.621 186.498C415.621 167.856 411.952 153.954 404.613 144.794C398.72 137.509 390.577 133.866 380.185 133.866Z" fill="white"/>
<path d="M506.111 128V165.686H503.138C502.174 158.454 500.433 152.695 497.915 148.41C495.451 144.124 491.915 140.723 487.308 138.205C482.701 135.687 477.934 134.428 473.005 134.428C467.434 134.428 462.827 136.143 459.185 139.571C455.542 142.946 453.72 146.803 453.72 151.142C453.72 154.463 454.872 157.49 457.176 160.222C460.497 164.24 468.398 169.597 480.88 176.293C491.058 181.757 497.996 185.962 501.692 188.908C505.442 191.801 508.308 195.229 510.29 199.194C512.325 203.158 513.343 207.309 513.343 211.648C513.343 219.898 510.129 227.023 503.701 233.023C497.326 238.969 489.103 241.942 479.032 241.942C475.871 241.942 472.898 241.701 470.113 241.219C468.452 240.951 464.997 239.987 459.747 238.326C454.551 236.612 451.256 235.755 449.863 235.755C448.524 235.755 447.453 236.156 446.649 236.96C445.899 237.764 445.337 239.424 444.962 241.942H441.989V204.577H444.962C446.355 212.398 448.23 218.264 450.587 222.175C452.944 226.032 456.533 229.246 461.354 231.817C466.229 234.389 471.559 235.674 477.345 235.674C484.041 235.674 489.317 233.907 493.174 230.371C497.085 226.835 499.04 222.657 499.04 217.836C499.04 215.157 498.29 212.452 496.79 209.72C495.344 206.988 493.067 204.443 489.96 202.086C487.871 200.479 482.166 197.078 472.845 191.881C463.524 186.632 456.881 182.453 452.917 179.346C449.006 176.239 446.033 172.811 443.998 169.061C441.962 165.311 440.944 161.186 440.944 156.686C440.944 148.865 443.944 142.142 449.944 136.518C455.944 130.839 463.577 128 472.845 128C478.63 128 484.764 129.42 491.246 132.259C494.246 133.598 496.362 134.268 497.594 134.268C498.987 134.268 500.111 133.866 500.969 133.062C501.879 132.205 502.602 130.518 503.138 128H506.111Z" fill="white"/>
<path d="M563.255 236.478V239.451H516.569V236.478H520.426C524.926 236.478 528.193 235.165 530.229 232.541C531.515 230.826 532.158 226.701 532.158 220.166V149.776C532.158 144.258 531.809 140.616 531.113 138.848C530.577 137.509 529.479 136.357 527.818 135.393C525.461 134.107 522.997 133.464 520.426 133.464H516.569V130.491H563.255V133.464H559.317C554.871 133.464 551.63 134.777 549.594 137.401C548.255 139.116 547.585 143.24 547.585 149.776V220.166C547.585 225.684 547.934 229.326 548.63 231.094C549.166 232.433 550.291 233.585 552.005 234.549C554.308 235.835 556.746 236.478 559.317 236.478H563.255Z" fill="white"/>
<path d="M624.817 239.451L582.712 147.767V220.568C582.712 227.264 583.435 231.442 584.881 233.103C586.863 235.353 589.997 236.478 594.283 236.478H598.14V239.451H560.213V236.478H564.07C568.677 236.478 571.944 235.085 573.873 232.299C575.051 230.585 575.641 226.675 575.641 220.568V149.374C575.641 144.553 575.105 141.071 574.034 138.928C573.284 137.375 571.891 136.089 569.855 135.071C567.873 134 564.659 133.464 560.213 133.464V130.491H591.069L630.603 215.747L669.494 130.491H700.35V133.464H696.573C691.913 133.464 688.618 134.857 686.69 137.642C685.511 139.357 684.922 143.267 684.922 149.374V220.568C684.922 227.264 685.672 231.442 687.172 233.103C689.154 235.353 692.288 236.478 696.573 236.478H700.35V239.451H654.066V236.478H657.923C662.584 236.478 665.851 235.085 667.726 232.299C668.905 230.585 669.494 226.675 669.494 220.568V147.767L627.469 239.451H624.817Z" fill="white"/>
<path d="M769.546 128V165.686H766.573C765.609 158.454 763.868 152.695 761.35 148.41C758.886 144.124 755.35 140.723 750.743 138.205C746.137 135.687 741.369 134.428 736.44 134.428C730.869 134.428 726.262 136.143 722.62 139.571C718.977 142.946 717.155 146.803 717.155 151.142C717.155 154.463 718.307 157.49 720.611 160.222C723.932 164.24 731.833 169.597 744.315 176.293C754.493 181.757 761.431 185.962 765.127 188.908C768.877 191.801 771.743 195.229 773.725 199.194C775.76 203.158 776.778 207.309 776.778 211.648C776.778 219.898 773.564 227.023 767.136 233.023C760.761 238.969 752.538 241.942 742.467 241.942C739.306 241.942 736.333 241.701 733.548 241.219C731.887 240.951 728.432 239.987 723.182 238.326C717.986 236.612 714.691 235.755 713.298 235.755C711.959 235.755 710.888 236.156 710.084 236.96C709.334 237.764 708.772 239.424 708.397 241.942H705.424V204.577H708.397C709.79 212.398 711.665 218.264 714.022 222.175C716.379 226.032 719.968 229.246 724.789 231.817C729.664 234.389 734.994 235.674 740.78 235.674C747.476 235.674 752.752 233.907 756.609 230.371C760.52 226.835 762.475 222.657 762.475 217.836C762.475 215.157 761.725 212.452 760.225 209.72C758.779 206.988 756.502 204.443 753.395 202.086C751.306 200.479 745.601 197.078 736.28 191.881C726.959 186.632 720.316 182.453 716.352 179.346C712.441 176.239 709.468 172.811 707.433 169.061C705.397 165.311 704.379 161.186 704.379 156.686C704.379 148.865 707.379 142.142 713.379 136.518C719.379 130.839 727.012 128 736.28 128C742.065 128 748.199 129.42 754.681 132.259C757.681 133.598 759.797 134.268 761.029 134.268C762.422 134.268 763.547 133.866 764.404 133.062C765.314 132.205 766.037 130.518 766.573 128H769.546Z" fill="white"/>
<path d="M851.198 202.97H809.012L801.619 220.166C799.798 224.398 798.887 227.559 798.887 229.648C798.887 231.308 799.664 232.782 801.217 234.067C802.824 235.299 806.253 236.103 811.503 236.478V239.451H777.192V236.478C781.745 235.674 784.691 234.63 786.03 233.344C788.762 230.773 791.789 225.55 795.11 217.675L833.439 128H836.252L874.179 218.639C877.232 225.925 879.991 230.666 882.455 232.862C884.973 235.005 888.455 236.21 892.901 236.478V239.451H849.912V236.478C854.251 236.264 857.171 235.54 858.67 234.308C860.224 233.076 861.001 231.576 861.001 229.808C861.001 227.451 859.929 223.728 857.787 218.639L851.198 202.97ZM848.948 197.024L830.466 152.99L811.503 197.024H848.948Z" fill="white"/>
<path d="M996.248 239.451H967.16L930.277 188.507C927.545 188.614 925.322 188.667 923.608 188.667C922.912 188.667 922.162 188.667 921.358 188.667C920.555 188.614 919.724 188.56 918.867 188.507V220.166C918.867 227.023 919.617 231.282 921.117 232.942C923.153 235.299 926.206 236.478 930.277 236.478H934.536V239.451H887.851V236.478H891.949C896.556 236.478 899.85 234.978 901.832 231.978C902.957 230.317 903.52 226.38 903.52 220.166V149.776C903.52 142.919 902.77 138.66 901.27 137C899.18 134.643 896.073 133.464 891.949 133.464H887.851V130.491H927.545C939.116 130.491 947.634 131.348 953.098 133.062C958.616 134.723 963.276 137.83 967.08 142.383C970.937 146.883 972.865 152.267 972.865 158.535C972.865 165.231 970.669 171.043 966.276 175.971C961.937 180.9 955.187 184.382 946.027 186.417L968.526 217.675C973.669 224.853 978.088 229.621 981.784 231.978C985.481 234.335 990.302 235.835 996.248 236.478V239.451ZM918.867 183.444C919.885 183.444 920.769 183.471 921.519 183.525C922.269 183.525 922.885 183.525 923.367 183.525C933.759 183.525 941.581 181.275 946.83 176.775C952.134 172.275 954.785 166.543 954.785 159.579C954.785 152.776 952.643 147.258 948.357 143.026C944.125 138.741 938.5 136.598 931.483 136.598C928.376 136.598 924.17 137.107 918.867 138.125V183.444Z" fill="white"/>
<path d="M1079.35 209.318L1082 209.881L1072.68 239.451H988.305V236.478H992.403C997.01 236.478 1000.3 234.978 1002.29 231.978C1003.41 230.264 1003.97 226.3 1003.97 220.086V149.776C1003.97 142.973 1003.22 138.714 1001.72 137C999.634 134.643 996.527 133.464 992.403 133.464H988.305V130.491H1037.64V133.464C1031.86 133.411 1027.79 133.946 1025.43 135.071C1023.12 136.196 1021.54 137.616 1020.69 139.33C1019.83 141.044 1019.4 145.142 1019.4 151.624V220.086C1019.4 224.532 1019.83 227.585 1020.69 229.246C1021.33 230.371 1022.32 231.201 1023.66 231.737C1025 232.273 1029.18 232.541 1036.2 232.541H1044.15C1052.51 232.541 1058.37 231.924 1061.75 230.692C1065.12 229.46 1068.2 227.291 1070.99 224.184C1073.77 221.023 1076.56 216.068 1079.35 209.318Z" fill="white"/>
<path d="M260.676 278.4V276.594H289.045V278.4H286.652C283.951 278.4 281.981 279.198 280.744 280.793C279.963 281.835 279.572 284.341 279.572 288.312V320.686C279.572 325.666 279.019 329.702 277.912 332.795C276.838 335.887 274.966 338.589 272.297 340.9C269.628 343.179 266.405 344.318 262.629 344.318C259.569 344.318 257.16 343.57 255.402 342.072C253.645 340.542 252.766 338.801 252.766 336.848C252.766 335.253 253.173 334.048 253.986 333.234C255.061 332.225 256.314 331.721 257.746 331.721C258.788 331.721 259.715 332.062 260.529 332.746C261.376 333.43 262.434 335.253 263.703 338.215C264.452 339.973 265.412 340.852 266.584 340.852C267.463 340.852 268.277 340.314 269.025 339.24C269.807 338.166 270.197 336.262 270.197 333.527V288.312C270.197 284.96 269.986 282.746 269.562 281.672C269.237 280.858 268.553 280.158 267.512 279.572C266.112 278.791 264.631 278.4 263.068 278.4H260.676Z" fill="#C08F1F"/>
<path d="M310.578 280.207V306.379H325.129C328.905 306.379 331.428 305.809 332.697 304.67C334.39 303.173 335.334 300.536 335.529 296.76H337.336V319.807H335.529C335.074 316.584 334.618 314.517 334.162 313.605C333.576 312.466 332.616 311.571 331.281 310.92C329.947 310.269 327.896 309.943 325.129 309.943H310.578V331.77C310.578 334.699 310.708 336.49 310.969 337.141C311.229 337.759 311.685 338.264 312.336 338.654C312.987 339.012 314.224 339.191 316.047 339.191H327.277C331.021 339.191 333.739 338.931 335.432 338.41C337.124 337.889 338.752 336.864 340.314 335.334C342.333 333.316 344.4 330.272 346.516 326.203H348.469L342.756 342.805H291.73V340.998H294.074C295.637 340.998 297.118 340.624 298.518 339.875C299.559 339.354 300.259 338.573 300.617 337.531C301.008 336.49 301.203 334.357 301.203 331.135V288.117C301.203 283.918 300.78 281.33 299.934 280.354C298.762 279.051 296.809 278.4 294.074 278.4H291.73V276.594H342.756L343.488 291.096H341.584C340.9 287.613 340.135 285.22 339.289 283.918C338.475 282.616 337.255 281.623 335.627 280.939C334.325 280.451 332.03 280.207 328.742 280.207H310.578Z" fill="#C08F1F"/>
<path d="M444.416 276.594V278.4C442.691 278.4 441.291 278.71 440.217 279.328C439.143 279.947 438.117 281.102 437.141 282.795C436.49 283.934 435.464 286.652 434.064 290.949L415.607 344.318H413.654L398.566 301.984L383.576 344.318H381.818L362.141 289.338C360.676 285.236 359.748 282.811 359.357 282.062C358.706 280.826 357.811 279.914 356.672 279.328C355.565 278.71 354.051 278.4 352.131 278.4V276.594H376.643V278.4H375.471C373.745 278.4 372.427 278.791 371.516 279.572C370.604 280.354 370.148 281.298 370.148 282.404C370.148 283.544 370.865 286.164 372.297 290.266L385.334 327.424L396.32 295.832L392.805 285.822C392.121 284.195 391.356 282.762 390.51 281.525C390.087 280.907 389.566 280.386 388.947 279.963C388.133 279.377 387.32 278.954 386.506 278.693C385.887 278.498 384.911 278.4 383.576 278.4V276.594H409.357V278.4H407.6C405.777 278.4 404.442 278.791 403.596 279.572C402.749 280.354 402.326 281.411 402.326 282.746C402.326 284.406 403.059 287.303 404.523 291.438L417.219 327.424L429.816 290.949C431.249 286.913 431.965 284.113 431.965 282.551C431.965 281.802 431.721 281.102 431.232 280.451C430.777 279.8 430.191 279.344 429.475 279.084C428.238 278.628 426.626 278.4 424.641 278.4V276.594H444.416Z" fill="#C08F1F"/>
<path d="M466.145 280.207V306.379H480.695C484.471 306.379 486.994 305.809 488.264 304.67C489.956 303.173 490.9 300.536 491.096 296.76H492.902V319.807H491.096C490.64 316.584 490.184 314.517 489.729 313.605C489.143 312.466 488.182 311.571 486.848 310.92C485.513 310.269 483.462 309.943 480.695 309.943H466.145V331.77C466.145 334.699 466.275 336.49 466.535 337.141C466.796 337.759 467.251 338.264 467.902 338.654C468.553 339.012 469.79 339.191 471.613 339.191H482.844C486.587 339.191 489.305 338.931 490.998 338.41C492.691 337.889 494.318 336.864 495.881 335.334C497.899 333.316 499.966 330.272 502.082 326.203H504.035L498.322 342.805H447.297V340.998H449.641C451.203 340.998 452.684 340.624 454.084 339.875C455.126 339.354 455.826 338.573 456.184 337.531C456.574 336.49 456.77 334.357 456.77 331.135V288.117C456.77 283.918 456.346 281.33 455.5 280.354C454.328 279.051 452.375 278.4 449.641 278.4H447.297V276.594H498.322L499.055 291.096H497.15C496.467 287.613 495.702 285.22 494.855 283.918C494.042 282.616 492.821 281.623 491.193 280.939C489.891 280.451 487.596 280.207 484.309 280.207H466.145Z" fill="#C08F1F"/>
<path d="M563.703 324.494L565.314 324.836L559.65 342.805H508.381V340.998H510.871C513.671 340.998 515.673 340.087 516.877 338.264C517.561 337.222 517.902 334.813 517.902 331.037V288.312C517.902 284.178 517.447 281.59 516.535 280.549C515.266 279.117 513.378 278.4 510.871 278.4H508.381V276.594H538.361V278.4C534.846 278.368 532.372 278.693 530.939 279.377C529.54 280.061 528.579 280.923 528.059 281.965C527.538 283.007 527.277 285.497 527.277 289.436V331.037C527.277 333.739 527.538 335.594 528.059 336.604C528.449 337.287 529.051 337.792 529.865 338.117C530.679 338.443 533.218 338.605 537.482 338.605H542.316C547.395 338.605 550.959 338.231 553.01 337.482C555.061 336.734 556.932 335.415 558.625 333.527C560.318 331.607 562.01 328.596 563.703 324.494Z" fill="#C08F1F"/>
<path d="M624.836 324.494L626.447 324.836L620.783 342.805H569.514V340.998H572.004C574.803 340.998 576.805 340.087 578.01 338.264C578.693 337.222 579.035 334.813 579.035 331.037V288.312C579.035 284.178 578.579 281.59 577.668 280.549C576.398 279.117 574.51 278.4 572.004 278.4H569.514V276.594H599.494V278.4C595.979 278.368 593.505 278.693 592.072 279.377C590.673 280.061 589.712 280.923 589.191 281.965C588.671 283.007 588.41 285.497 588.41 289.436V331.037C588.41 333.739 588.671 335.594 589.191 336.604C589.582 337.287 590.184 337.792 590.998 338.117C591.812 338.443 594.351 338.605 598.615 338.605H603.449C608.527 338.605 612.092 338.231 614.143 337.482C616.193 336.734 618.065 335.415 619.758 333.527C621.451 331.607 623.143 328.596 624.836 324.494Z" fill="#C08F1F"/>
<path d="M649.543 280.207V306.379H664.094C667.87 306.379 670.393 305.809 671.662 304.67C673.355 303.173 674.299 300.536 674.494 296.76H676.301V319.807H674.494C674.038 316.584 673.583 314.517 673.127 313.605C672.541 312.466 671.581 311.571 670.246 310.92C668.911 310.269 666.861 309.943 664.094 309.943H649.543V331.77C649.543 334.699 649.673 336.49 649.934 337.141C650.194 337.759 650.65 338.264 651.301 338.654C651.952 339.012 653.189 339.191 655.012 339.191H666.242C669.986 339.191 672.704 338.931 674.396 338.41C676.089 337.889 677.717 336.864 679.279 335.334C681.298 333.316 683.365 330.272 685.48 326.203H687.434L681.721 342.805H630.695V340.998H633.039C634.602 340.998 636.083 340.624 637.482 339.875C638.524 339.354 639.224 338.573 639.582 337.531C639.973 336.49 640.168 334.357 640.168 331.135V288.117C640.168 283.918 639.745 281.33 638.898 280.354C637.727 279.051 635.773 278.4 633.039 278.4H630.695V276.594H681.721L682.453 291.096H680.549C679.865 287.613 679.1 285.22 678.254 283.918C677.44 282.616 676.219 281.623 674.592 280.939C673.29 280.451 670.995 280.207 667.707 280.207H649.543Z" fill="#C08F1F"/>
<path d="M757.355 342.805H739.68L717.268 311.848C715.607 311.913 714.257 311.945 713.215 311.945C712.792 311.945 712.336 311.945 711.848 311.945C711.359 311.913 710.855 311.88 710.334 311.848V331.086C710.334 335.253 710.79 337.84 711.701 338.85C712.938 340.282 714.794 340.998 717.268 340.998H719.855V342.805H691.486V340.998H693.977C696.776 340.998 698.778 340.087 699.982 338.264C700.666 337.255 701.008 334.862 701.008 331.086V288.312C701.008 284.146 700.552 281.558 699.641 280.549C698.371 279.117 696.483 278.4 693.977 278.4H691.486V276.594H715.607C722.639 276.594 727.814 277.115 731.135 278.156C734.488 279.165 737.32 281.053 739.631 283.82C741.975 286.555 743.146 289.826 743.146 293.635C743.146 297.704 741.812 301.236 739.143 304.23C736.506 307.225 732.404 309.341 726.838 310.578L740.51 329.572C743.635 333.934 746.32 336.831 748.566 338.264C750.812 339.696 753.742 340.607 757.355 340.998V342.805ZM710.334 308.771C710.952 308.771 711.49 308.788 711.945 308.82C712.401 308.82 712.775 308.82 713.068 308.82C719.383 308.82 724.136 307.453 727.326 304.719C730.549 301.984 732.16 298.501 732.16 294.27C732.16 290.135 730.858 286.783 728.254 284.211C725.682 281.607 722.264 280.305 718 280.305C716.112 280.305 713.557 280.614 710.334 281.232V308.771Z" fill="#C08F1F"/>
<path d="M798.664 276.594H821.76V278.4H820.49C819.644 278.4 818.407 278.775 816.779 279.523C815.152 280.272 813.671 281.346 812.336 282.746C811.001 284.146 809.357 286.424 807.404 289.582L791.438 314.729V331.33C791.438 335.399 791.893 337.938 792.805 338.947C794.042 340.314 795.995 340.998 798.664 340.998H800.812V342.805H772.688V340.998H775.031C777.831 340.998 779.816 340.152 780.988 338.459C781.704 337.417 782.062 335.041 782.062 331.33V315.656L763.898 287.922C761.75 284.667 760.285 282.632 759.504 281.818C758.755 281.005 757.176 280.028 754.768 278.889C754.117 278.563 753.173 278.4 751.936 278.4V276.594H780.256V278.4H778.791C777.261 278.4 775.845 278.758 774.543 279.475C773.273 280.191 772.639 281.265 772.639 282.697C772.639 283.869 773.632 285.985 775.617 289.045L789.436 310.383L802.424 289.973C804.377 286.913 805.354 284.634 805.354 283.137C805.354 282.225 805.109 281.411 804.621 280.695C804.165 279.979 803.498 279.426 802.619 279.035C801.74 278.612 800.422 278.4 798.664 278.4V276.594Z" fill="#C08F1F"/>
</svg>
