<svg width="1086" height="409" viewBox="0 0 1086 409" fill="none" xmlns="http://www.w3.org/2000/svg">
<rect x="201" width="45" height="10" rx="5" transform="rotate(90 201 0)" fill="#C4921F"/>
<rect x="249.876" y="25.375" width="45" height="10" rx="5" transform="rotate(135.533 249.876 25.375)" fill="#C4921F"/>
<rect x="221" y="66" width="45" height="10" rx="5" fill="#C4921F"/>
<path d="M175 185.875C170.146 187.905 168.755 191.581 168.77 196.534C168.847 221.349 169.091 246.171 168.657 270.979C168.156 299.597 155.754 321.762 130.218 335.289C104.403 348.964 78.6299 346.743 54.2644 331.461C29.7395 316.078 20.3818 288.841 29.6661 262.906C32.7932 254.171 38.259 247.183 45.8429 241.885C47.2145 240.927 48.8883 240.401 51.2007 239.308C50.6586 240.795 50.6329 241.418 50.3197 241.645C27.6798 258.061 30.9936 300.856 60.6982 317.453C85.3849 331.246 118.058 326.711 136.383 306.368C145.756 295.964 148.711 283.327 148.804 269.862C148.969 246.047 148.888 222.23 148.777 198.414C148.755 193.743 148 187.875 143 185.875C147.5 185.875 152.5 185.875 157 185.876C163 185.876 169 185.875 175 185.875Z" fill="#C4921F"/>
<path d="M100.517 196.398C113.668 204.883 126.451 213.295 139.48 221.306C143.686 223.892 145.463 226.788 145.07 231.783C144.589 237.892 144.955 244.067 144.955 250.294C145 251.371 143.604 250.569 143.26 250.372C129.702 242.597 116.153 234.805 102.63 226.968C91.5577 220.551 81.8017 212.573 74.4282 202.019C57.8772 178.33 69.8219 144.966 98.1644 135.493C112.296 130.77 126.344 131.35 140.306 136.26C141.876 136.812 143.426 137.425 145.009 137.938C151.726 140.116 153.761 139.121 156.409 132.516C156.745 131.681 157.362 130.958 158.748 130.391C158.748 143.589 158.748 156.788 158.748 169.986H156.5L155.96 165.47C153.096 150.109 138.948 138.664 121.695 137.827C105.03 137.018 90.0221 146.875 85.7811 161.638C82.8056 171.997 85.7771 181.055 92.6589 188.951C94.9427 191.571 97.7026 193.776 100.517 196.398Z" fill="#C4921F"/>
<rect x="142" y="183.875" width="34" height="2" rx="1" fill="#C4921F"/>
<path d="M23 69.375H186C196.217 69.375 204.5 77.6577 204.5 87.875V385.875C204.5 396.092 196.217 404.375 186 404.375H23C12.7827 404.375 4.5 396.092 4.5 385.875V87.875C4.5 77.6577 12.7827 69.375 23 69.375Z" stroke="#C4921F" stroke-width="9"/>
<path d="M318.452 108.195V145.881H315.479C314.515 138.649 312.774 132.891 310.256 128.605C307.792 124.32 304.256 120.918 299.649 118.4C295.042 115.883 290.275 114.624 285.346 114.624C279.775 114.624 275.168 116.338 271.526 119.766C267.883 123.141 266.061 126.998 266.061 131.337C266.061 134.659 267.213 137.685 269.517 140.417C272.838 144.435 280.739 149.792 293.221 156.488C303.399 161.952 310.336 166.157 314.033 169.104C317.783 171.996 320.649 175.425 322.631 179.389C324.666 183.353 325.684 187.505 325.684 191.844C325.684 200.093 322.47 207.218 316.042 213.218C309.667 219.164 301.444 222.137 291.373 222.137C288.212 222.137 285.239 221.896 282.454 221.414C280.793 221.146 277.338 220.182 272.088 218.521C266.892 216.807 263.597 215.95 262.204 215.95C260.865 215.95 259.794 216.352 258.99 217.155C258.24 217.959 257.678 219.619 257.303 222.137H254.33V184.773H257.303C258.696 192.594 260.571 198.46 262.928 202.37C265.285 206.227 268.874 209.441 273.695 212.013C278.57 214.584 283.9 215.87 289.686 215.87C296.382 215.87 301.658 214.102 305.515 210.566C309.426 207.031 311.381 202.852 311.381 198.031C311.381 195.353 310.631 192.647 309.131 189.915C307.685 187.183 305.408 184.639 302.301 182.282C300.212 180.675 294.507 177.273 285.186 172.077C275.865 166.827 269.222 162.649 265.258 159.542C261.347 156.434 258.374 153.006 256.339 149.256C254.303 145.506 253.285 141.382 253.285 136.882C253.285 129.061 256.285 122.338 262.285 116.713C268.285 111.034 275.918 108.195 285.186 108.195C290.971 108.195 297.105 109.615 303.587 112.454C306.587 113.793 308.703 114.463 309.935 114.463C311.328 114.463 312.452 114.061 313.31 113.258C314.22 112.401 314.943 110.713 315.479 108.195H318.452Z" fill="white"/>
<path d="M384.997 108.195C399.139 108.195 411.38 113.579 421.719 124.346C432.111 135.06 437.307 148.453 437.307 164.523C437.307 181.076 432.084 194.817 421.638 205.745C411.192 216.673 398.55 222.137 383.711 222.137C368.712 222.137 356.096 216.807 345.865 206.147C335.686 195.487 330.597 181.692 330.597 164.765C330.597 147.462 336.49 133.346 348.275 122.418C358.507 112.936 370.747 108.195 384.997 108.195ZM383.47 114.061C373.721 114.061 365.899 117.677 360.007 124.909C352.668 133.909 348.998 147.087 348.998 164.443C348.998 182.228 352.802 195.915 360.409 205.504C366.248 212.789 373.962 216.432 383.551 216.432C393.782 216.432 402.219 212.441 408.862 204.459C415.558 196.478 418.906 183.889 418.906 166.693C418.906 148.051 415.237 134.15 407.898 124.989C402.005 117.704 393.863 114.061 383.47 114.061Z" fill="white"/>
<path d="M509.396 108.195V145.881H506.423C505.459 138.649 503.718 132.891 501.2 128.605C498.736 124.32 495.201 120.918 490.594 118.4C485.987 115.883 481.219 114.624 476.291 114.624C470.719 114.624 466.112 116.338 462.47 119.766C458.827 123.141 457.006 126.998 457.006 131.337C457.006 134.659 458.157 137.685 460.461 140.417C463.782 144.435 471.684 149.792 484.165 156.488C494.343 161.952 501.281 166.157 504.977 169.104C508.727 171.996 511.593 175.425 513.575 179.389C515.61 183.353 516.628 187.505 516.628 191.844C516.628 200.093 513.414 207.218 506.986 213.218C500.611 219.164 492.388 222.137 482.317 222.137C479.157 222.137 476.183 221.896 473.398 221.414C471.737 221.146 468.282 220.182 463.032 218.521C457.836 216.807 454.541 215.95 453.149 215.95C451.809 215.95 450.738 216.352 449.934 217.155C449.185 217.959 448.622 219.619 448.247 222.137H445.274V184.773H448.247C449.64 192.594 451.515 198.46 453.872 202.37C456.229 206.227 459.818 209.441 464.639 212.013C469.514 214.584 474.844 215.87 480.63 215.87C487.326 215.87 492.602 214.102 496.459 210.566C500.37 207.031 502.325 202.852 502.325 198.031C502.325 195.353 501.575 192.647 500.075 189.915C498.629 187.183 496.352 184.639 493.245 182.282C491.156 180.675 485.451 177.273 476.13 172.077C466.809 166.827 460.166 162.649 456.202 159.542C452.292 156.434 449.318 153.006 447.283 149.256C445.247 145.506 444.229 141.382 444.229 136.882C444.229 129.061 447.229 122.338 453.229 116.713C459.229 111.034 466.862 108.195 476.13 108.195C481.915 108.195 488.049 109.615 494.531 112.454C497.531 113.793 499.647 114.463 500.879 114.463C502.272 114.463 503.397 114.061 504.254 113.258C505.164 112.401 505.888 110.713 506.423 108.195H509.396Z" fill="white"/>
<path d="M566.54 216.673V219.646H519.854V216.673H523.711C528.211 216.673 531.479 215.361 533.514 212.736C534.8 211.022 535.443 206.897 535.443 200.361V129.971C535.443 124.454 535.094 120.811 534.398 119.043C533.862 117.704 532.764 116.552 531.104 115.588C528.746 114.302 526.282 113.659 523.711 113.659H519.854V110.686H566.54V113.659H562.602C558.156 113.659 554.915 114.972 552.879 117.597C551.54 119.311 550.871 123.436 550.871 129.971V200.361C550.871 205.879 551.219 209.522 551.915 211.289C552.451 212.629 553.576 213.78 555.29 214.745C557.594 216.03 560.031 216.673 562.602 216.673H566.54Z" fill="white"/>
<path d="M628.102 219.646L585.997 127.962V200.763C585.997 207.459 586.72 211.638 588.166 213.298C590.149 215.548 593.282 216.673 597.568 216.673H601.425V219.646H563.498V216.673H567.355C571.962 216.673 575.229 215.28 577.158 212.495C578.336 210.781 578.926 206.87 578.926 200.763V129.569C578.926 124.748 578.39 121.266 577.319 119.123C576.569 117.57 575.176 116.284 573.14 115.266C571.158 114.195 567.944 113.659 563.498 113.659V110.686H594.354L633.888 195.942L672.779 110.686H703.635V113.659H699.858C695.198 113.659 691.903 115.052 689.975 117.838C688.796 119.552 688.207 123.463 688.207 129.569V200.763C688.207 207.459 688.957 211.638 690.457 213.298C692.439 215.548 695.573 216.673 699.858 216.673H703.635V219.646H657.351V216.673H661.208C665.869 216.673 669.136 215.28 671.011 212.495C672.19 210.781 672.779 206.87 672.779 200.763V127.962L630.754 219.646H628.102Z" fill="white"/>
<path d="M772.831 108.195V145.881H769.858C768.894 138.649 767.153 132.891 764.635 128.605C762.171 124.32 758.636 120.918 754.029 118.4C749.422 115.883 744.654 114.624 739.726 114.624C734.154 114.624 729.547 116.338 725.905 119.766C722.262 123.141 720.441 126.998 720.441 131.337C720.441 134.659 721.592 137.685 723.896 140.417C727.217 144.435 735.119 149.792 747.6 156.488C757.778 161.952 764.716 166.157 768.412 169.104C772.162 171.996 775.028 175.425 777.01 179.389C779.045 183.353 780.063 187.505 780.063 191.844C780.063 200.093 776.849 207.218 770.421 213.218C764.046 219.164 755.823 222.137 745.752 222.137C742.592 222.137 739.618 221.896 736.833 221.414C735.172 221.146 731.717 220.182 726.467 218.521C721.271 216.807 717.976 215.95 716.584 215.95C715.244 215.95 714.173 216.352 713.37 217.155C712.62 217.959 712.057 219.619 711.682 222.137H708.709V184.773H711.682C713.075 192.594 714.95 198.46 717.307 202.37C719.664 206.227 723.253 209.441 728.074 212.013C732.949 214.584 738.279 215.87 744.065 215.87C750.761 215.87 756.037 214.102 759.894 210.566C763.805 207.031 765.76 202.852 765.76 198.031C765.76 195.353 765.01 192.647 763.51 189.915C762.064 187.183 759.787 184.639 756.68 182.282C754.591 180.675 748.886 177.273 739.565 172.077C730.244 166.827 723.601 162.649 719.637 159.542C715.727 156.434 712.753 153.006 710.718 149.256C708.682 145.506 707.664 141.382 707.664 136.882C707.664 129.061 710.664 122.338 716.664 116.713C722.664 111.034 730.297 108.195 739.565 108.195C745.35 108.195 751.484 109.615 757.966 112.454C760.966 113.793 763.082 114.463 764.314 114.463C765.707 114.463 766.832 114.061 767.689 113.258C768.599 112.401 769.323 110.713 769.858 108.195H772.831Z" fill="white"/>
<path d="M854.483 183.166H812.297L804.904 200.361C803.083 204.593 802.172 207.754 802.172 209.843C802.172 211.504 802.949 212.977 804.503 214.263C806.11 215.495 809.538 216.298 814.788 216.673V219.646H780.477V216.673C785.03 215.87 787.976 214.825 789.316 213.539C792.048 210.968 795.074 205.745 798.396 197.87L836.724 108.195H839.537L877.464 198.835C880.517 206.12 883.276 210.861 885.74 213.057C888.258 215.2 891.74 216.405 896.186 216.673V219.646H853.197V216.673C857.536 216.459 860.456 215.736 861.956 214.504C863.509 213.272 864.286 211.772 864.286 210.004C864.286 207.647 863.214 203.924 861.072 198.835L854.483 183.166ZM852.233 177.219L833.751 133.185L814.788 177.219H852.233Z" fill="white"/>
<path d="M999.533 219.646H970.445L933.563 168.702C930.831 168.809 928.607 168.863 926.893 168.863C926.197 168.863 925.447 168.863 924.643 168.863C923.84 168.809 923.009 168.755 922.152 168.702V200.361C922.152 207.218 922.902 211.477 924.402 213.138C926.438 215.495 929.491 216.673 933.563 216.673H937.821V219.646H891.136V216.673H895.234C899.841 216.673 903.135 215.173 905.117 212.173C906.242 210.513 906.805 206.575 906.805 200.361V129.971C906.805 123.114 906.055 118.856 904.555 117.195C902.466 114.838 899.359 113.659 895.234 113.659H891.136V110.686H930.831C942.401 110.686 950.919 111.543 956.383 113.258C961.901 114.918 966.561 118.025 970.365 122.579C974.222 127.078 976.15 132.462 976.15 138.73C976.15 145.426 973.954 151.238 969.561 156.167C965.222 161.095 958.472 164.577 949.312 166.613L971.811 197.87C976.954 205.049 981.373 209.816 985.069 212.173C988.766 214.53 993.587 216.03 999.533 216.673V219.646ZM922.152 163.64C923.17 163.64 924.054 163.666 924.804 163.72C925.554 163.72 926.17 163.72 926.652 163.72C937.045 163.72 944.866 161.47 950.115 156.97C955.419 152.47 958.07 146.738 958.07 139.774C958.07 132.971 955.928 127.453 951.642 123.222C947.41 118.936 941.785 116.793 934.768 116.793C931.661 116.793 927.456 117.302 922.152 118.32V163.64Z" fill="white"/>
<path d="M1082.63 189.514L1085.28 190.076L1075.96 219.646H991.59V216.673H995.688C1000.29 216.673 1003.59 215.173 1005.57 212.173C1006.7 210.459 1007.26 206.495 1007.26 200.281V129.971C1007.26 123.168 1006.51 118.909 1005.01 117.195C1002.92 114.838 999.813 113.659 995.688 113.659H991.59V110.686H1040.93V113.659C1035.14 113.606 1031.07 114.142 1028.71 115.266C1026.41 116.391 1024.83 117.811 1023.97 119.525C1023.12 121.239 1022.69 125.337 1022.69 131.819V200.281C1022.69 204.727 1023.12 207.781 1023.97 209.441C1024.62 210.566 1025.61 211.397 1026.95 211.932C1028.28 212.468 1032.46 212.736 1039.48 212.736H1047.44C1055.79 212.736 1061.66 212.12 1065.03 210.888C1068.41 209.656 1071.49 207.486 1074.27 204.379C1077.06 201.218 1079.85 196.263 1082.63 189.514Z" fill="white"/>
<path d="M263.961 258.594V256.787H292.33V258.594H289.938C287.236 258.594 285.266 259.391 284.029 260.986C283.248 262.028 282.857 264.535 282.857 268.506V300.879C282.857 305.859 282.304 309.896 281.197 312.988C280.123 316.081 278.251 318.783 275.582 321.094C272.913 323.372 269.69 324.512 265.914 324.512C262.854 324.512 260.445 323.763 258.688 322.266C256.93 320.736 256.051 318.994 256.051 317.041C256.051 315.446 256.458 314.242 257.271 313.428C258.346 312.419 259.599 311.914 261.031 311.914C262.073 311.914 263.001 312.256 263.814 312.939C264.661 313.623 265.719 315.446 266.988 318.408C267.737 320.166 268.697 321.045 269.869 321.045C270.748 321.045 271.562 320.508 272.311 319.434C273.092 318.359 273.482 316.455 273.482 313.721V268.506C273.482 265.153 273.271 262.939 272.848 261.865C272.522 261.051 271.839 260.352 270.797 259.766C269.397 258.984 267.916 258.594 266.354 258.594H263.961Z" fill="#C08F1F"/>
<path d="M313.863 260.4V286.572H328.414C332.19 286.572 334.713 286.003 335.982 284.863C337.675 283.366 338.619 280.729 338.814 276.953H340.621V300H338.814C338.359 296.777 337.903 294.71 337.447 293.799C336.861 292.66 335.901 291.764 334.566 291.113C333.232 290.462 331.181 290.137 328.414 290.137H313.863V311.963C313.863 314.893 313.993 316.683 314.254 317.334C314.514 317.952 314.97 318.457 315.621 318.848C316.272 319.206 317.509 319.385 319.332 319.385H330.562C334.306 319.385 337.024 319.124 338.717 318.604C340.41 318.083 342.037 317.057 343.6 315.527C345.618 313.509 347.685 310.465 349.801 306.396H351.754L346.041 322.998H295.016V321.191H297.359C298.922 321.191 300.403 320.817 301.803 320.068C302.844 319.548 303.544 318.766 303.902 317.725C304.293 316.683 304.488 314.551 304.488 311.328V268.311C304.488 264.111 304.065 261.523 303.219 260.547C302.047 259.245 300.094 258.594 297.359 258.594H295.016V256.787H346.041L346.773 271.289H344.869C344.186 267.806 343.421 265.413 342.574 264.111C341.76 262.809 340.54 261.816 338.912 261.133C337.61 260.645 335.315 260.4 332.027 260.4H313.863Z" fill="#C08F1F"/>
<path d="M447.701 256.787V258.594C445.976 258.594 444.576 258.903 443.502 259.521C442.428 260.14 441.402 261.296 440.426 262.988C439.775 264.128 438.749 266.846 437.35 271.143L418.893 324.512H416.939L401.852 282.178L386.861 324.512H385.104L365.426 269.531C363.961 265.43 363.033 263.005 362.643 262.256C361.992 261.019 361.096 260.107 359.957 259.521C358.85 258.903 357.337 258.594 355.416 258.594V256.787H379.928V258.594H378.756C377.031 258.594 375.712 258.984 374.801 259.766C373.889 260.547 373.434 261.491 373.434 262.598C373.434 263.737 374.15 266.357 375.582 270.459L388.619 307.617L399.605 276.025L396.09 266.016C395.406 264.388 394.641 262.956 393.795 261.719C393.372 261.1 392.851 260.579 392.232 260.156C391.419 259.57 390.605 259.147 389.791 258.887C389.173 258.691 388.196 258.594 386.861 258.594V256.787H412.643V258.594H410.885C409.062 258.594 407.727 258.984 406.881 259.766C406.035 260.547 405.611 261.605 405.611 262.939C405.611 264.6 406.344 267.497 407.809 271.631L420.504 307.617L433.102 271.143C434.534 267.106 435.25 264.307 435.25 262.744C435.25 261.995 435.006 261.296 434.518 260.645C434.062 259.993 433.476 259.538 432.76 259.277C431.523 258.822 429.911 258.594 427.926 258.594V256.787H447.701Z" fill="#C08F1F"/>
<path d="M469.43 260.4V286.572H483.98C487.757 286.572 490.279 286.003 491.549 284.863C493.242 283.366 494.186 280.729 494.381 276.953H496.188V300H494.381C493.925 296.777 493.469 294.71 493.014 293.799C492.428 292.66 491.467 291.764 490.133 291.113C488.798 290.462 486.747 290.137 483.98 290.137H469.43V311.963C469.43 314.893 469.56 316.683 469.82 317.334C470.081 317.952 470.536 318.457 471.188 318.848C471.839 319.206 473.076 319.385 474.898 319.385H486.129C489.872 319.385 492.59 319.124 494.283 318.604C495.976 318.083 497.604 317.057 499.166 315.527C501.184 313.509 503.251 310.465 505.367 306.396H507.32L501.607 322.998H450.582V321.191H452.926C454.488 321.191 455.969 320.817 457.369 320.068C458.411 319.548 459.111 318.766 459.469 317.725C459.859 316.683 460.055 314.551 460.055 311.328V268.311C460.055 264.111 459.632 261.523 458.785 260.547C457.613 259.245 455.66 258.594 452.926 258.594H450.582V256.787H501.607L502.34 271.289H500.436C499.752 267.806 498.987 265.413 498.141 264.111C497.327 262.809 496.106 261.816 494.479 261.133C493.176 260.645 490.882 260.4 487.594 260.4H469.43Z" fill="#C08F1F"/>
<path d="M566.988 304.688L568.6 305.029L562.936 322.998H511.666V321.191H514.156C516.956 321.191 518.958 320.28 520.162 318.457C520.846 317.415 521.188 315.007 521.188 311.23V268.506C521.188 264.372 520.732 261.784 519.82 260.742C518.551 259.31 516.663 258.594 514.156 258.594H511.666V256.787H541.646V258.594C538.131 258.561 535.657 258.887 534.225 259.57C532.825 260.254 531.865 261.117 531.344 262.158C530.823 263.2 530.562 265.69 530.562 269.629V311.23C530.562 313.932 530.823 315.788 531.344 316.797C531.734 317.48 532.337 317.985 533.15 318.311C533.964 318.636 536.503 318.799 540.768 318.799H545.602C550.68 318.799 554.244 318.424 556.295 317.676C558.346 316.927 560.217 315.609 561.91 313.721C563.603 311.8 565.296 308.789 566.988 304.688Z" fill="#C08F1F"/>
<path d="M628.121 304.688L629.732 305.029L624.068 322.998H572.799V321.191H575.289C578.089 321.191 580.09 320.28 581.295 318.457C581.979 317.415 582.32 315.007 582.32 311.23V268.506C582.32 264.372 581.865 261.784 580.953 260.742C579.684 259.31 577.796 258.594 575.289 258.594H572.799V256.787H602.779V258.594C599.264 258.561 596.79 258.887 595.357 259.57C593.958 260.254 592.997 261.117 592.477 262.158C591.956 263.2 591.695 265.69 591.695 269.629V311.23C591.695 313.932 591.956 315.788 592.477 316.797C592.867 317.48 593.469 317.985 594.283 318.311C595.097 318.636 597.636 318.799 601.9 318.799H606.734C611.812 318.799 615.377 318.424 617.428 317.676C619.479 316.927 621.35 315.609 623.043 313.721C624.736 311.8 626.428 308.789 628.121 304.688Z" fill="#C08F1F"/>
<path d="M652.828 260.4V286.572H667.379C671.155 286.572 673.678 286.003 674.947 284.863C676.64 283.366 677.584 280.729 677.779 276.953H679.586V300H677.779C677.324 296.777 676.868 294.71 676.412 293.799C675.826 292.66 674.866 291.764 673.531 291.113C672.197 290.462 670.146 290.137 667.379 290.137H652.828V311.963C652.828 314.893 652.958 316.683 653.219 317.334C653.479 317.952 653.935 318.457 654.586 318.848C655.237 319.206 656.474 319.385 658.297 319.385H669.527C673.271 319.385 675.989 319.124 677.682 318.604C679.374 318.083 681.002 317.057 682.564 315.527C684.583 313.509 686.65 310.465 688.766 306.396H690.719L685.006 322.998H633.98V321.191H636.324C637.887 321.191 639.368 320.817 640.768 320.068C641.809 319.548 642.509 318.766 642.867 317.725C643.258 316.683 643.453 314.551 643.453 311.328V268.311C643.453 264.111 643.03 261.523 642.184 260.547C641.012 259.245 639.059 258.594 636.324 258.594H633.98V256.787H685.006L685.738 271.289H683.834C683.15 267.806 682.385 265.413 681.539 264.111C680.725 262.809 679.505 261.816 677.877 261.133C676.575 260.645 674.28 260.4 670.992 260.4H652.828Z" fill="#C08F1F"/>
<path d="M760.641 322.998H742.965L720.553 292.041C718.893 292.106 717.542 292.139 716.5 292.139C716.077 292.139 715.621 292.139 715.133 292.139C714.645 292.106 714.14 292.074 713.619 292.041V311.279C713.619 315.446 714.075 318.034 714.986 319.043C716.223 320.475 718.079 321.191 720.553 321.191H723.141V322.998H694.771V321.191H697.262C700.061 321.191 702.063 320.28 703.268 318.457C703.951 317.448 704.293 315.055 704.293 311.279V268.506C704.293 264.339 703.837 261.751 702.926 260.742C701.656 259.31 699.768 258.594 697.262 258.594H694.771V256.787H718.893C725.924 256.787 731.1 257.308 734.42 258.35C737.773 259.359 740.605 261.247 742.916 264.014C745.26 266.748 746.432 270.02 746.432 273.828C746.432 277.897 745.097 281.429 742.428 284.424C739.791 287.419 735.689 289.535 730.123 290.771L743.795 309.766C746.92 314.128 749.605 317.025 751.852 318.457C754.098 319.889 757.027 320.801 760.641 321.191V322.998ZM713.619 288.965C714.238 288.965 714.775 288.981 715.23 289.014C715.686 289.014 716.061 289.014 716.354 289.014C722.669 289.014 727.421 287.646 730.611 284.912C733.834 282.178 735.445 278.695 735.445 274.463C735.445 270.329 734.143 266.976 731.539 264.404C728.967 261.8 725.549 260.498 721.285 260.498C719.397 260.498 716.842 260.807 713.619 261.426V288.965Z" fill="#C08F1F"/>
<path d="M801.949 256.787H825.045V258.594H823.775C822.929 258.594 821.692 258.968 820.064 259.717C818.437 260.465 816.956 261.54 815.621 262.939C814.286 264.339 812.643 266.618 810.689 269.775L794.723 294.922V311.523C794.723 315.592 795.178 318.132 796.09 319.141C797.327 320.508 799.28 321.191 801.949 321.191H804.098V322.998H775.973V321.191H778.316C781.116 321.191 783.102 320.345 784.273 318.652C784.99 317.611 785.348 315.234 785.348 311.523V295.85L767.184 268.115C765.035 264.86 763.57 262.826 762.789 262.012C762.04 261.198 760.462 260.221 758.053 259.082C757.402 258.757 756.458 258.594 755.221 258.594V256.787H783.541V258.594H782.076C780.546 258.594 779.13 258.952 777.828 259.668C776.559 260.384 775.924 261.458 775.924 262.891C775.924 264.062 776.917 266.178 778.902 269.238L792.721 290.576L805.709 270.166C807.662 267.106 808.639 264.827 808.639 263.33C808.639 262.419 808.395 261.605 807.906 260.889C807.451 260.173 806.783 259.619 805.904 259.229C805.025 258.805 803.707 258.594 801.949 258.594V256.787Z" fill="#C08F1F"/>
<path d="M905.172 304.688L906.783 305.029L901.119 322.998H849.85V321.191H852.34C855.139 321.191 857.141 320.28 858.346 318.457C859.029 317.415 859.371 315.007 859.371 311.23V268.506C859.371 264.372 858.915 261.784 858.004 260.742C856.734 259.31 854.846 258.594 852.34 258.594H849.85V256.787H879.83V258.594C876.314 258.561 873.84 258.887 872.408 259.57C871.008 260.254 870.048 261.117 869.527 262.158C869.007 263.2 868.746 265.69 868.746 269.629V311.23C868.746 313.932 869.007 315.788 869.527 316.797C869.918 317.48 870.52 317.985 871.334 318.311C872.148 318.636 874.687 318.799 878.951 318.799H883.785C888.863 318.799 892.428 318.424 894.479 317.676C896.529 316.927 898.401 315.609 900.094 313.721C901.786 311.8 903.479 308.789 905.172 304.688Z" fill="white"/>
<path d="M921.48 313.525C923.01 313.525 924.296 314.062 925.338 315.137C926.38 316.178 926.9 317.448 926.9 318.945C926.9 320.443 926.363 321.729 925.289 322.803C924.247 323.844 922.978 324.365 921.48 324.365C919.983 324.365 918.697 323.844 917.623 322.803C916.581 321.729 916.061 320.443 916.061 318.945C916.061 317.415 916.581 316.13 917.623 315.088C918.697 314.046 919.983 313.525 921.48 313.525Z" fill="white"/>
<path d="M991.305 304.688L992.916 305.029L987.252 322.998H935.982V321.191H938.473C941.272 321.191 943.274 320.28 944.479 318.457C945.162 317.415 945.504 315.007 945.504 311.23V268.506C945.504 264.372 945.048 261.784 944.137 260.742C942.867 259.31 940.979 258.594 938.473 258.594H935.982V256.787H965.963V258.594C962.447 258.561 959.973 258.887 958.541 259.57C957.141 260.254 956.181 261.117 955.66 262.158C955.139 263.2 954.879 265.69 954.879 269.629V311.23C954.879 313.932 955.139 315.788 955.66 316.797C956.051 317.48 956.653 317.985 957.467 318.311C958.281 318.636 960.82 318.799 965.084 318.799H969.918C974.996 318.799 978.561 318.424 980.611 317.676C982.662 316.927 984.534 315.609 986.227 313.721C987.919 311.8 989.612 308.789 991.305 304.688Z" fill="white"/>
<path d="M1007.61 313.525C1009.14 313.525 1010.43 314.062 1011.47 315.137C1012.51 316.178 1013.03 317.448 1013.03 318.945C1013.03 320.443 1012.5 321.729 1011.42 322.803C1010.38 323.844 1009.11 324.365 1007.61 324.365C1006.12 324.365 1004.83 323.844 1003.76 322.803C1002.71 321.729 1002.19 320.443 1002.19 318.945C1002.19 317.415 1002.71 316.13 1003.76 315.088C1004.83 314.046 1006.12 313.525 1007.61 313.525Z" fill="white"/>
<path d="M1080.32 255.273L1081.83 277.783H1080.32C1078.3 271.045 1075.42 266.195 1071.68 263.232C1067.93 260.27 1063.44 258.789 1058.2 258.789C1053.8 258.789 1049.83 259.912 1046.29 262.158C1042.74 264.372 1039.94 267.92 1037.89 272.803C1035.87 277.686 1034.86 283.757 1034.86 291.016C1034.86 297.005 1035.82 302.197 1037.74 306.592C1039.66 310.986 1042.54 314.355 1046.38 316.699C1050.26 319.043 1054.67 320.215 1059.62 320.215C1063.91 320.215 1067.7 319.303 1070.99 317.48C1074.28 315.625 1077.89 311.963 1081.83 306.494L1083.35 307.471C1080.03 313.363 1076.15 317.676 1071.72 320.41C1067.3 323.145 1062.04 324.512 1055.95 324.512C1044.98 324.512 1036.49 320.443 1030.46 312.305C1025.97 306.25 1023.73 299.121 1023.73 290.918C1023.73 284.31 1025.21 278.239 1028.17 272.705C1031.13 267.171 1035.2 262.891 1040.38 259.863C1045.59 256.803 1051.27 255.273 1057.42 255.273C1062.2 255.273 1066.92 256.445 1071.58 258.789C1072.95 259.505 1073.92 259.863 1074.51 259.863C1075.39 259.863 1076.15 259.554 1076.8 258.936C1077.65 258.057 1078.25 256.836 1078.61 255.273H1080.32Z" fill="white"/>
<path d="M252.571 354.619H275.479V355.83H274.334C272.61 355.83 271.421 356.016 270.767 356.387C270.134 356.736 269.676 357.227 269.392 357.859C269.13 358.492 269 360.074 269 362.605V384.335C269 388.306 269.294 390.935 269.883 392.222C270.494 393.51 271.487 394.579 272.861 395.429C274.236 396.28 275.97 396.706 278.065 396.706C280.465 396.706 282.505 396.171 284.185 395.102C285.886 394.011 287.152 392.517 287.981 390.619C288.832 388.721 289.257 385.415 289.257 380.703V362.605C289.257 360.619 289.05 359.201 288.635 358.35C288.221 357.499 287.697 356.91 287.065 356.583C286.083 356.081 284.697 355.83 282.908 355.83V354.619H298.257V355.83H297.341C296.097 355.83 295.061 356.081 294.232 356.583C293.403 357.085 292.803 357.838 292.432 358.841C292.148 359.539 292.006 360.794 292.006 362.605V379.459C292.006 384.673 291.657 388.437 290.959 390.75C290.283 393.062 288.614 395.189 285.952 397.131C283.29 399.073 279.657 400.044 275.054 400.044C271.214 400.044 268.247 399.531 266.152 398.506C263.294 397.109 261.276 395.32 260.098 393.139C258.92 390.957 258.331 388.022 258.331 384.335V362.605C258.331 360.052 258.189 358.47 257.905 357.859C257.622 357.227 257.131 356.725 256.433 356.354C255.734 355.983 254.447 355.809 252.571 355.83V354.619Z" fill="white"/>
<path d="M325.308 386.364H309.632L307.766 390.684C307.155 392.124 306.85 393.313 306.85 394.251C306.85 395.495 307.352 396.411 308.355 397C308.944 397.349 310.395 397.611 312.708 397.786V398.997H297.948V397.786C299.541 397.546 300.85 396.891 301.875 395.822C302.901 394.731 304.166 392.495 305.672 389.113L321.544 353.703H322.166L338.169 390.095C339.696 393.542 340.951 395.713 341.933 396.608C342.674 397.284 343.722 397.677 345.074 397.786V398.997H323.606V397.786H324.489C326.213 397.786 327.424 397.546 328.122 397.066C328.602 396.717 328.842 396.215 328.842 395.56C328.842 395.168 328.777 394.764 328.646 394.35C328.602 394.153 328.275 393.335 327.664 391.895L325.308 386.364ZM324.195 383.942L317.584 368.659L310.777 383.942H324.195Z" fill="white"/>
<path d="M362.111 357.172V375.237H362.994C365.809 375.237 367.849 374.354 369.114 372.586C370.379 370.819 371.187 368.212 371.536 364.765H372.779V388.001H371.536C371.274 385.47 370.718 383.397 369.867 381.783C369.038 380.168 368.067 379.088 366.954 378.543C365.841 377.975 364.227 377.692 362.111 377.692V390.193C362.111 392.637 362.209 394.131 362.405 394.677C362.623 395.222 363.016 395.669 363.583 396.019C364.15 396.368 365.067 396.542 366.332 396.542H368.983C373.128 396.542 376.445 395.582 378.932 393.662C381.441 391.742 383.241 388.819 384.332 384.892H385.543L383.546 398.997H345.191V397.786H346.664C347.951 397.786 348.987 397.557 349.773 397.099C350.34 396.793 350.776 396.269 351.082 395.528C351.322 395.004 351.442 393.63 351.442 391.404V362.212C351.442 360.205 351.387 358.972 351.278 358.514C351.06 357.75 350.656 357.161 350.067 356.747C349.238 356.136 348.104 355.83 346.664 355.83H345.191V354.619H382.336V367.743H381.092C380.459 364.536 379.565 362.234 378.408 360.838C377.274 359.441 375.659 358.416 373.565 357.761C372.343 357.369 370.052 357.172 366.692 357.172H362.111Z" fill="white"/>
</svg>
